<svg width="100" height="100" viewBox="0 0 100 100" fill="none" xmlns="http://www.w3.org/2000/svg">
<circle cx="50" cy="50" r="50" fill="#D9D9D9"/>
<path d="M44.8038 38C47.1132 34 52.8868 34 55.1962 38L64.7224 54.5C67.0318 58.5 64.1451 63.5 59.5263 63.5H40.4737C35.8549 63.5 32.9682 58.5 35.2776 54.5L44.8038 38Z" fill="#A9A9A9"/>
<path d="M67.1139 50.4906C67.9836 49.9331 68.735 49.2098 69.3251 48.3619C69.9153 47.514 70.3327 46.5582 70.5534 45.549C70.7742 44.5399 70.794 43.4971 70.6118 42.4802C70.4296 41.4634 70.0488 40.4924 69.4913 39.6227C68.9338 38.753 68.2105 38.0016 67.3626 37.4114C66.5148 36.8213 65.5589 36.4039 64.5498 36.1831C63.5406 35.9624 62.4978 35.9425 61.4809 36.1248C60.4641 36.307 59.4931 36.6878 58.6234 37.2452L62.8687 43.8679L67.1139 50.4906Z" fill="#BEBEBE"/>
</svg>
